<svg width="500" height="500" viewBox="0 0 500 500" fill="none" xmlns="http://www.w3.org/2000/svg">
<path d="M328.762 315.009L198.185 398.219L237.884 455.038L368.449 371.828C379.057 365.154 388.155 356.341 395.163 345.951C402.171 335.561 406.935 323.824 409.149 311.489C411.387 298.905 411.088 286.001 408.271 273.534C405.455 261.067 400.176 249.288 392.746 238.888C380.645 221.443 363.482 208.132 343.574 200.753C323.667 193.374 301.974 192.282 281.426 197.624C272.046 200.131 263.104 204.061 254.915 209.278L205.094 241.029C202.616 242.605 199.912 243.793 197.075 244.553C190.884 246.158 184.349 245.825 178.353 243.6C172.358 241.374 167.189 237.362 163.545 232.106C161.308 228.97 159.72 225.419 158.873 221.661C158.026 217.903 157.937 214.014 158.611 210.221C159.278 206.506 160.713 202.972 162.824 199.843C164.935 196.714 167.675 194.059 170.869 192.049L301.445 108.835L261.746 52.0195L131.182 135.237C120.574 141.908 111.474 150.719 104.466 161.107C97.4581 171.496 92.6952 183.232 90.4823 195.567C88.2447 208.151 88.543 221.055 91.3597 233.522C94.1765 245.989 99.4549 257.768 106.885 268.167C118.986 285.612 136.15 298.923 156.057 306.302C175.964 313.681 197.657 314.774 218.205 309.431C227.585 306.923 236.526 302.997 244.72 297.787L294.546 266.024C297.021 264.448 299.722 263.26 302.556 262.502C308.747 260.897 315.281 261.23 321.277 263.456C327.273 265.681 332.442 269.693 336.086 274.949C338.321 278.086 339.91 281.636 340.759 285.393C341.607 289.15 341.699 293.039 341.029 296.832C340.359 300.547 338.922 304.083 336.81 307.212C334.697 310.342 331.957 312.997 328.762 315.009Z" fill="#FF3E00"/>
<circle cx="282.392" cy="77.0732" r="60.0732" fill="#FF3E00"/>
<circle cx="222.319" cy="422.494" r="60.0732" fill="#FF3E00"/>
</svg>
